<svg width="64" height="64" viewBox="0 0 64 64" fill="none" xmlns="http://www.w3.org/2000/svg">
  <!-- Background circle -->
  <circle cx="32" cy="32" r="30" fill="#059669" stroke="#047857" stroke-width="2"/>
  
  <!-- Poker card symbols -->
  <g transform="translate(16, 16)">
    <!-- Spade -->
    <path d="M16 8c-4 0-8 4-8 8 0 2 1 4 3 5-1 0-2 1-2 2s1 2 2 2h10c1 0 2-1 2-2s-1-2-2-2c2-1 3-3 3-5 0-4-4-8-8-8z" fill="white"/>
    
    <!-- Club -->
    <g transform="translate(0, 16)">
      <circle cx="4" cy="4" r="3" fill="white"/>
      <circle cx="12" cy="4" r="3" fill="white"/>
      <circle cx="8" cy="8" r="3" fill="white"/>
      <path d="M6 12h4v3h-4z" fill="white"/>
    </g>
    
    <!-- Heart -->
    <g transform="translate(16, 0)">
      <path d="M8 4c-2-2-6-2-6 2 0 2 2 4 6 8 4-4 6-6 6-8 0-4-4-4-6-2z" fill="#dc2626"/>
    </g>
    
    <!-- Diamond -->
    <g transform="translate(20, 16)">
      <path d="M4 0l4 6-4 6-4-6z" fill="#dc2626"/>
    </g>
  </g>
  
  <!-- Crown icon for "Master" -->
  <g transform="translate(20, 6)">
    <path d="M12 2l-2 6h8l-2-6-2 2-2-2z" fill="#fbbf24" stroke="#f59e0b" stroke-width="1"/>
    <circle cx="8" cy="2" r="1" fill="#fbbf24"/>
    <circle cx="12" cy="2" r="1" fill="#fbbf24"/>
    <circle cx="16" cy="2" r="1" fill="#fbbf24"/>
  </g>
</svg>